<?xml version="1.0" standalone="no"?>
<!DOCTYPE svg PUBLIC "-//W3C//DTD SVG 20010904//EN"
 "http://www.w3.org/TR/2001/REC-SVG-20010904/DTD/svg10.dtd">
<svg version="1.0" xmlns="http://www.w3.org/2000/svg"
 width="439.000000pt" height="439.000000pt" viewBox="0 0 439.000000 439.000000"
 preserveAspectRatio="xMidYMid meet">
<metadata>
Created by potrace 1.14, written by Peter Selinger 2001-2017
</metadata>
<g transform="translate(0.000000,439.000000) scale(0.100000,-0.100000)"
fill="#000000" stroke="none">
<path d="M1930 4077 c0 -10 -31 -42 -41 -42 -4 0 -11 -3 -15 -7 -4 -4 -14 -2
-22 5 -13 9 -14 9 -8 0 4 -7 2 -13 -3 -13 -6 0 -11 6 -11 13 0 9 -3 8 -9 -2
-6 -9 -20 -12 -40 -9 -17 2 -32 0 -34 -7 -3 -6 -17 -11 -31 -13 -15 -1 -39 -8
-55 -17 -16 -8 -39 -12 -52 -10 -27 5 -73 -9 -144 -45 -38 -19 -55 -36 -73
-70 -13 -25 -20 -36 -17 -26 5 16 3 17 -10 6 -9 -7 -14 -19 -11 -27 3 -7 1
-13 -5 -13 -5 0 -14 -12 -20 -27 -8 -20 -12 -24 -18 -14 -7 11 -11 9 -20 -6
-5 -11 -7 -23 -4 -27 3 -3 2 -6 -3 -6 -5 0 -10 -9 -11 -19 -1 -11 -13 -38 -27
-60 -14 -22 -26 -45 -26 -51 0 -5 -4 -10 -9 -10 -5 0 -7 -17 -5 -37 2 -28 -2
-43 -18 -60 -11 -12 -18 -29 -15 -37 3 -8 0 -19 -7 -25 -11 -10 -14 -3 -18 46
-3 27 -16 1 -14 -26 1 -17 -1 -28 -5 -25 -12 7 -38 -70 -28 -82 7 -8 1 -18
-17 -31 -23 -17 -24 -21 -12 -34 33 -33 45 -114 21 -141 -13 -15 -12 -18 9
-29 32 -16 58 -45 50 -55 -4 -4 -1 -4 6 0 7 4 15 1 18 -8 3 -9 10 -14 14 -11
5 3 12 0 16 -6 4 -8 3 -9 -4 -5 -7 4 -12 3 -12 -3 0 -5 4 -11 10 -13 5 -1 11
-16 14 -33 2 -16 7 -38 11 -47 4 -9 4 -21 1 -27 -4 -5 -2 -12 2 -15 5 -3 8
-17 6 -32 -1 -15 2 -38 8 -53 10 -25 13 -39 21 -106 2 -17 9 -41 16 -53 7 -12
9 -27 6 -32 -3 -5 0 -12 5 -15 7 -5 5 -11 -6 -19 -18 -14 -28 -103 -12 -112 5
-3 6 -9 3 -14 -3 -5 -1 -11 3 -14 5 -3 10 -29 11 -58 1 -29 4 -61 7 -71 3 -11
7 -29 9 -40 6 -46 28 -117 36 -117 5 0 9 -7 9 -15 0 -17 49 -65 67 -65 7 0 13
-5 13 -11 0 -6 15 -10 33 -9 47 3 59 1 53 -8 -7 -11 34 -138 61 -187 57 -105
64 -127 69 -206 7 -115 -3 -127 -146 -196 -63 -30 -119 -56 -125 -57 -11 -2
-142 -63 -165 -77 -8 -5 -26 -14 -40 -20 -61 -25 -150 -71 -155 -80 -4 -5 -15
-9 -25 -9 -20 0 -83 -30 -88 -42 -2 -5 -8 -8 -13 -8 -14 0 -100 -41 -131 -62
-16 -11 -28 -17 -28 -14 0 3 -22 -6 -49 -19 -27 -14 -54 -25 -60 -25 -6 0 -11
-4 -11 -8 0 -5 -6 -9 -12 -9 -29 -1 -158 -86 -231 -153 -100 -90 -127 -118
-127 -129 0 -6 -5 -11 -10 -11 -15 0 -51 -35 -54 -51 -1 -8 -5 -19 -8 -24 -8
-13 -37 -127 -43 -175 -3 -19 -8 -43 -11 -52 -3 -10 -7 -30 -10 -45 -3 -16 -8
-37 -11 -48 -4 -11 -7 -34 -8 -51 -1 -17 -4 -35 -7 -40 -4 -5 -9 -26 -13 -47
l-7 -37 2166 0 2166 0 0 138 c0 145 -9 188 -59 292 -11 24 -21 49 -21 56 0 25
-82 174 -92 168 -7 -4 -8 -2 -4 4 8 14 -120 144 -164 167 -16 9 -30 20 -30 25
0 5 -8 11 -17 14 -10 3 -34 19 -53 36 -19 16 -40 30 -45 30 -6 0 -22 11 -37
25 -28 25 -103 68 -126 71 -8 2 -21 6 -30 10 -9 4 -26 9 -36 11 -11 2 -25 8
-33 14 -7 6 -13 9 -13 6 0 -4 -29 5 -64 18 -35 13 -66 21 -70 18 -3 -4 -6 0
-6 7 0 7 -2 11 -6 8 -5 -6 -43 7 -219 73 -58 21 -166 59 -180 63 -5 2 -19 6
-30 11 -57 22 -75 31 -75 37 0 5 -9 8 -19 8 -11 0 -22 4 -25 9 -3 4 -20 12
-38 16 -44 10 -40 9 -65 23 -13 7 -23 10 -23 6 0 -10 -35 38 -45 61 -4 11 -10
31 -12 45 -2 14 -8 29 -14 34 -15 16 -11 140 6 162 8 10 15 27 15 37 0 9 5 17
10 17 6 0 10 8 10 18 0 10 3 22 8 26 4 4 7 15 8 24 0 9 6 37 13 62 12 42 16
58 24 117 3 23 13 37 25 39 21 3 50 20 74 45 31 33 39 53 58 144 13 62 24 158
23 207 -1 54 -31 136 -60 163 -21 19 -24 28 -18 52 5 15 9 31 10 36 2 4 4 10
5 15 1 4 2 10 1 15 0 4 3 7 8 7 5 0 13 9 16 20 4 11 11 18 16 15 5 -4 9 1 9 9
0 9 5 16 11 16 5 0 8 4 5 9 -3 5 1 12 10 15 8 3 12 11 8 17 -3 6 -1 15 5 19 7
4 13 16 14 27 0 12 6 19 14 16 12 -5 12 14 -2 58 -5 16 -1 19 24 19 16 0 33 5
36 10 4 6 3 10 -2 9 -27 -5 -42 3 -40 20 0 11 4 18 8 15 11 -6 16 55 6 65 -6
6 -2 8 14 4 20 -6 21 -5 8 9 -7 9 -17 14 -21 12 -10 -6 -21 16 -22 44 -1 19
-7 26 -26 29 -33 5 -37 15 -35 78 1 30 -3 55 -8 55 -4 0 -5 4 -2 10 3 5 -3 27
-15 49 -11 22 -20 47 -20 56 0 14 3 14 25 -1 31 -21 32 -15 1 21 -14 16 -23
32 -20 37 3 4 -2 5 -10 2 -8 -3 -24 4 -35 15 -12 12 -21 16 -21 9 0 -6 -7 -4
-18 5 -10 10 -24 17 -30 17 -11 0 -16 13 -13 32 0 4 -8 10 -19 13 -11 4 -18
11 -14 16 4 6 11 6 20 -2 10 -8 14 -8 14 0 0 6 -11 13 -25 17 -16 4 -28 17
-35 38 -6 18 -23 43 -38 56 -15 12 -36 31 -48 42 -11 10 -30 20 -40 22 -33 7
-91 33 -98 45 -4 6 -13 11 -19 11 -7 0 -6 -4 3 -10 11 -7 5 -9 -22 -8 -29 1
-36 5 -35 19 1 16 3 17 17 4 14 -13 16 -12 17 5 1 11 -2 20 -8 20 -5 0 -9 7
-9 16 0 8 -4 13 -9 9 -5 -3 -15 0 -23 7 -15 15 -82 47 -108 52 -3 1 -11 5 -17
9 -7 5 -13 5 -13 0 0 -4 -23 -19 -50 -32 -28 -14 -50 -30 -50 -35 0 -6 -5 -4
-10 4 -8 12 -11 13 -19 1 -5 -8 -11 -9 -15 -3 -3 5 1 12 9 16 8 3 15 11 15 18
0 10 -3 9 -9 -1 -10 -15 -41 -8 -41 9 0 6 4 9 9 6 11 -7 36 22 27 31 -3 3 -6
2 -6 -4 0 -5 -6 -10 -12 -11 -7 0 -24 -3 -38 -7 -14 -4 -35 -7 -47 -6 -12 0
-25 -4 -28 -9 -3 -5 -13 -6 -21 -3 -9 3 -20 0 -26 -8 -8 -11 -9 -10 -4 4 6 20
2 21 -24 7 -13 -7 -19 -6 -23 4 -4 9 5 16 25 20 17 3 28 9 25 13 -10 10 -97
10 -97 0z m50 -1 c0 -2 -7 -7 -16 -10 -8 -3 -12 -2 -9 4 6 10 25 14 25 6z
m-805 -686 c3 -6 -1 -7 -9 -4 -18 7 -21 14 -7 14 6 0 13 -4 16 -10z"/>
<path d="M2870 3660 c14 -10 27 -17 29 -14 6 5 -31 33 -44 33 -5 1 1 -8 15
-19z"/>
</g>
</svg>
